<svg xmlns="http://www.w3.org/2000/svg" viewBox="0 0 160 80" width="160" height="80">
  <!--
    Torn paper edge alpha mask — 160x80px, tileable horizontally
    Black = transparent (top), White = opaque (bottom)
    Edge is generated by lerping between fine roughness and large organic swells
    using a slow sine wave as the blend weight, producing calm-to-dramatic transitions.
    No overhangs — clean polygon suitable for standard alpha mask use.
  -->
  <rect x="0" y="0" width="160" height="80" fill="black"/>
  <polygon fill="white" points="
    0,80 0,33.3 1,32.6 2,32.0 3,31.8 4,32.0 5,32.6 6,33.1 7,33.3 8,33.4
    9,33.7 10,34.2 11,34.6 12,34.8 13,35.0 14,35.3 15,35.5 16,35.5 17,35.4
    18,35.7 19,36.2 20,36.7 21,36.6 22,36.2 23,35.8 24,35.7 25,35.9 26,36.3
    27,37.0 28,38.3 29,39.5 30,40.2 31,40.3 32,40.2 33,40.5 34,40.7 35,40.4
    36,39.4 37,38.5 38,37.9 39,37.5 40,37.4 41,37.8 42,39.0 43,40.5 44,41.3
    45,41.1 46,40.5 47,40.4 48,40.7 49,41.0 50,41.2 51,41.7 52,42.4 53,42.8
    54,42.8 55,42.8 56,43.3 57,44.4 58,45.2 59,45.5 60,45.6 61,46.2 62,47.0
    63,47.9 64,48.9 65,49.9 66,50.9 67,51.3 68,50.9 69,49.9 70,49.0 71,48.2
    72,47.3 73,46.3 74,45.3 75,44.3 76,43.5 77,42.6 78,41.8 79,41.1 80,40.8
    81,40.4 82,39.7 83,38.8 84,37.9 85,37.4 86,37.0 87,36.8 88,36.7 89,36.9
    90,37.0 91,36.8 92,36.2 93,35.7 94,35.7 95,36.0 96,36.3 97,36.4 98,36.7
    99,37.3 100,38.1 101,38.9 102,39.7 103,40.7 104,41.7 105,41.7 106,40.6
    107,39.1 108,38.1 109,37.8 110,37.8 111,37.9 112,38.3 113,39.1 114,39.6
    115,39.7 116,39.5 117,39.7 118,40.4 119,40.7 120,40.3 121,39.3 122,38.7
    123,38.4 124,38.3 125,38.1 126,38.1 127,38.2 128,38.1 129,37.4 130,36.5
    131,36.2 132,36.6 133,37.5 134,38.4 135,39.3 136,40.3 137,41.4 138,42.2
    139,42.7 140,43.3 141,43.8 142,44.1 143,43.7 144,43.0 145,42.2 146,41.6
    147,41.1 148,40.6 149,40.0 150,39.5 151,39.0 152,38.3 153,37.6 154,37.0
    155,36.6 156,36.2 157,35.9 158,35.8 159,36.2 160,33.3 160,80
  "/>
</svg>
